<svg xmlns="http://www.w3.org/2000/svg" viewBox="0 0 48 48">
  <path d="M41.793,27.496c-0.147,0.483-0.305,0.947-0.475,1.394c-0.279,0.734-0.604,1.432-0.973,2.094 c-0.514,0.92-0.936,1.559-1.264,1.916c-0.504,0.465-1.045,0.705-1.623,0.723c-0.414,0-0.914-0.119-1.496-0.359 c-0.584-0.24-1.119-0.359-1.607-0.359c-0.514,0-1.064,0.119-1.654,0.359c-0.59,0.24-1.066,0.365-1.43,0.377 c-0.553,0.023-1.104-0.221-1.654-0.734c-0.354-0.377-0.797-1.025-1.328-1.945c-0.57-0.979-1.037-2.113-1.402-3.404 c-0.395-1.406-0.592-2.766-0.592-4.078c0-1.508,0.326-2.809,0.977-3.9c0.514-0.883,1.197-1.58,2.051-2.09 c0.854-0.51,1.775-0.771,2.766-0.787c0.543,0,1.254,0.168,2.139,0.498c0.883,0.33,1.449,0.498,1.699,0.498 c0.186,0,0.816-0.195,1.887-0.584c1.012-0.359,1.867-0.508,2.566-0.449c1.895,0.154,3.318,0.904,4.266,2.254 c-1.695,1.027-2.533,2.467-2.516,4.318c0.016,1.439,0.537,2.637,1.559,3.59c0.463,0.439,0.98,0.779,1.559,1.018 c-0.125,0.363-0.257,0.711-0.396,1.043L41.793,27.496z M35.457,8.418c0,1.127-0.412,2.18-1.234,3.154 c-0.992,1.16-2.193,1.83-3.494,1.723c-0.016-0.137-0.027-0.281-0.027-0.432c0-1.096,0.477-2.27,1.324-3.234 c0.422-0.49,0.959-0.898,1.609-1.223c0.648-0.32,1.262-0.496,1.84-0.527C35.449,8.033,35.457,8.226,35.457,8.418z"/>
</svg> 